# xmcd CD database file generated by Grip 2.94
# 
# Track frame offsets:
#       182
#       14497
#       30930
#       44270
#       55002
#       66255
#       83207
#       101147
#       114767
#       127495
#       140742
#       150460
#       163255
#       173517
#       186910
#       197845
#       215882
#       231030
# 
# Disc length: 3294 seconds
# 
# Revision: 3
# Processed by: cddbd v1.4b41PL1 Copyright (c) Steve Scherf et al.
# Submitted via: Grip 2.94
# 
DISCID=000cdc12
DTITLE=Various Artist - Country 4
DYEAR=1900
DGENRE=
TTITLE0=Beaver on my lap bear on my tail
TTITLE1=Truck driver's blues
TTITLE2=Room full of roses
TTITLE3=She called me baby, baby
TTITLE4=San Antonio rose
TTITLE5=For the good times
TTITLE6=SUnday morning coming down
TTITLE7=Too late to worry
TTITLE8=I can't stop lavin' you
TTITLE9=Behind closed door
TTITLE10=Truck divin' son of a gun
TTITLE11=Freightliner fever
TTITLE12=Looking at the world through the windshield
TTITLE13=Me and Ole C.B.
TTITLE14=Six days on the road
TTITLE15=Convoy
TTITLE16=Little Tom
TTITLE17=You needed me
EXTD=
EXTT0=
EXTT1=
EXTT2=
EXTT3=
EXTT4=
EXTT5=
EXTT6=
EXTT7=
EXTT8=
EXTT9=
EXTT10=
EXTT11=
EXTT12=
EXTT13=
EXTT14=
EXTT15=
EXTT16=
EXTT17=
PLAYORDER=
